<svg width="31" height="25" viewBox="0 0 31 25" fill="none" xmlns="http://www.w3.org/2000/svg">
<path d="M29.7188 0.46875H1.28125C0.67627 0.46875 0.1875 0.95752 0.1875 1.5625V23.4375C0.1875 24.0425 0.67627 24.5312 1.28125 24.5312H29.7188C30.3237 24.5312 30.8125 24.0425 30.8125 23.4375V1.5625C30.8125 0.95752 30.3237 0.46875 29.7188 0.46875ZM28.3516 4.25586V22.0703H2.64844V4.25586L1.70508 3.521L3.04834 1.79492L4.51123 2.93311H26.4922L27.9551 1.79492L29.2983 3.521L28.3516 4.25586ZM26.4922 2.92969L15.5 11.4746L4.50781 2.92969L3.04492 1.7915L1.70166 3.51758L2.64502 4.25244L14.3208 13.3306C14.6566 13.5914 15.0697 13.733 15.4949 13.733C15.9201 13.733 16.3332 13.5914 16.6689 13.3306L28.3516 4.25586L29.2949 3.521L27.9517 1.79492L26.4922 2.92969Z" fill="black" fill-opacity="0.7"/>
</svg>
