<svg width="33" height="33" viewBox="0 0 33 33" fill="none" xmlns="http://www.w3.org/2000/svg">
<path d="M31.3408 24.4249C31.2596 24.3436 31.0059 24.1607 30.5797 23.8762C30.1534 23.5917 29.6562 23.2615 29.0879 22.8856L27.3829 21.7579L25.8607 20.752L25.0082 20.2186C24.9271 20.1576 24.8307 20.1068 24.719 20.0662C24.6074 20.0256 24.4958 19.9951 24.3841 19.9748C24.2725 19.9544 24.1558 19.9443 24.034 19.9443C23.9528 19.9443 23.8818 19.9494 23.8209 19.9595C23.76 19.9697 23.694 19.9798 23.623 19.99C23.552 20.0002 23.4759 20.0154 23.3947 20.0357C23.3135 20.056 23.2374 20.0764 23.1663 20.0967C23.0953 20.117 23.0243 20.1424 22.9532 20.1729C22.8822 20.2034 22.8061 20.2338 22.7249 20.2643C22.6437 20.2948 22.5727 20.3304 22.5118 20.371C22.1261 20.5742 21.2026 21.0924 19.7413 21.9255C18.5032 21.0517 16.9606 19.6903 15.1137 17.8411C13.287 16.0123 11.9372 14.4782 11.0645 13.2386C11.8966 11.7553 12.4142 10.8307 12.6172 10.4649C13.1449 9.44892 13.1956 8.60563 12.7694 7.93506C12.5461 7.58962 11.8307 6.50249 10.623 4.67368C9.41538 2.84486 8.73037 1.8187 8.568 1.59517C8.22296 1.10749 7.69524 0.863647 6.98486 0.863647C6.80219 0.863647 6.6246 0.883968 6.45208 0.924608C6.27956 0.965248 6.10704 1.02113 5.93451 1.09225C5.76199 1.16337 5.59455 1.24973 5.43217 1.35133C5.33069 1.43261 5.16324 1.56469 4.92983 1.74757C4.69642 1.93046 4.32093 2.24034 3.80337 2.67722C3.28581 3.11411 2.82406 3.54083 2.41813 3.95739C2.0122 4.37396 1.64686 4.83116 1.32211 5.329C0.997366 5.82685 0.845142 6.25865 0.865438 6.62441C0.885735 7.47786 1.03796 8.37703 1.32211 9.32191C1.60626 10.2668 1.9919 11.2066 2.47902 12.1413C2.96614 13.0761 3.50907 14.0006 4.10782 14.915C4.70657 15.8294 5.38143 16.7439 6.13241 17.6583C6.88338 18.5727 7.60391 19.4109 8.29399 20.1729C8.98408 20.9349 9.71476 21.702 10.486 22.4741C11.6835 23.673 12.881 24.7856 14.0785 25.8117C15.276 26.8379 16.5801 27.8437 17.9907 28.8293C19.4013 29.8148 20.8322 30.6022 22.2834 31.1915C23.7346 31.7808 25.0996 32.0957 26.3783 32.1364H26.4087C26.7538 32.1364 27.1698 31.9738 27.657 31.6487C28.1441 31.3236 28.5957 30.9527 29.0118 30.5362C29.4278 30.1196 29.8541 29.6624 30.2904 29.1646C30.7268 28.6667 31.0363 28.2959 31.219 28.052L31.5843 27.5643C32.2135 26.6703 32.3049 25.8168 31.8584 25.004C31.7163 24.7602 31.5438 24.5671 31.3408 24.4249ZM30.0012 26.4061C29.3923 27.2595 28.7124 28.0673 27.9614 28.8293C27.2104 29.5913 26.6624 30.0434 26.3174 30.1856C24.4907 30.084 22.3342 29.256 19.8478 27.7015C17.3615 26.147 14.7026 23.9473 11.8713 21.1025C9.0399 18.2577 6.84279 15.5907 5.27995 13.1015C3.71711 10.6122 2.8951 8.46339 2.81391 6.65489C2.93569 6.30945 3.37714 5.76081 4.13827 5.00896C4.89939 4.25711 5.70618 3.57639 6.55864 2.96678C6.59923 2.92614 6.63982 2.89566 6.68041 2.87534C6.72101 2.85502 6.76668 2.83978 6.81742 2.82962C6.86816 2.81946 6.92397 2.81438 6.98486 2.81438C7.00516 2.81438 7.02546 2.82454 7.04575 2.84486C8.26355 4.5924 9.60313 6.61425 11.0645 8.91043C11.0645 9.07299 11.0036 9.28635 10.8818 9.55052C10.8412 9.61148 10.7905 9.70292 10.7296 9.82484C10.6687 9.94676 10.5926 10.089 10.5013 10.2516C10.4099 10.4141 10.3034 10.597 10.1816 10.8002C10.0598 11.0034 9.93295 11.2269 9.80102 11.4708C9.66909 11.7146 9.52194 11.9788 9.35957 12.2633L8.75067 13.3301L9.4509 14.3359C10.4048 15.6974 11.8358 17.3331 13.7436 19.2432C15.6515 21.1533 17.2752 22.5757 18.6148 23.5105L19.6195 24.242L20.7155 23.6324C21.3041 23.2869 21.8521 22.9669 22.3595 22.6723C22.867 22.3776 23.2221 22.1897 23.4251 22.1084C23.6484 21.9661 23.8513 21.895 24.034 21.895H24.0645C25.7085 22.9313 27.7381 24.2826 30.1534 25.9489C30.1737 26.0911 30.123 26.2435 30.0012 26.4061ZM20.5024 12.3852C20.6445 12.5071 20.8069 12.5681 20.9895 12.5681H21.3853L28.3572 12.5985C28.479 12.5985 28.5957 12.563 28.7073 12.4919C28.8189 12.4207 28.9103 12.3293 28.9813 12.2175C29.0523 12.1058 29.0879 11.9889 29.0879 11.867V11.3489C29.0676 11.1253 28.9762 10.9475 28.8139 10.8154C28.6515 10.6834 28.4688 10.6173 28.2659 10.6173H23.6687L31.6452 2.6315C31.8279 2.44862 31.9192 2.2251 31.9192 1.96094C31.9192 1.69677 31.8228 1.46817 31.63 1.27513C31.4372 1.08209 31.2089 0.985568 30.945 0.985568C30.6811 0.985568 30.4477 1.07701 30.2448 1.25989L22.2682 9.27619L22.2987 4.55176C22.2987 4.34856 22.2276 4.17583 22.0855 4.03359C21.9435 3.89135 21.7811 3.82023 21.5984 3.82023H21.0809C20.9591 3.82023 20.8424 3.84563 20.7307 3.89643C20.6191 3.94723 20.5278 4.01835 20.4567 4.10979C20.3857 4.20123 20.3502 4.31807 20.3502 4.46032V11.5013H20.3806L20.3197 11.867C20.34 12.0905 20.4009 12.2633 20.5024 12.3852Z" fill="black" fill-opacity="0.7"/>
</svg>
