<svg width="10" height="10" viewBox="0 0 10 10" fill="none" xmlns="http://www.w3.org/2000/svg">
<path d="M4.50002 2.5H5.50002C5.76524 2.5 6.01959 2.60536 6.20713 2.79289C6.39467 2.98043 6.50002 3.23478 6.50002 3.5V4H5.50002V3.5H4.50002V6.5H5.50002V6H6.50002V6.5C6.50002 6.76522 6.39467 7.01957 6.20713 7.20711C6.01959 7.39464 5.76524 7.5 5.50002 7.5H4.50002C4.23481 7.5 3.98045 7.39464 3.79292 7.20711C3.60538 7.01957 3.50002 6.76522 3.50002 6.5V3.5C3.50002 3.23478 3.60538 2.98043 3.79292 2.79289C3.98045 2.60536 4.23481 2.5 4.50002 2.5ZM5.00002 0C5.65663 0 6.30681 0.129329 6.91344 0.380602C7.52007 0.631876 8.07126 1.00017 8.53556 1.46447C8.99985 1.92876 9.36815 2.47995 9.61942 3.08658C9.87069 3.69321 10 4.34339 10 5C10 6.32608 9.47324 7.59785 8.53556 8.53553C7.59787 9.47322 6.32611 10 5.00002 10C4.34341 10 3.69323 9.87067 3.08661 9.6194C2.47998 9.36812 1.92878 8.99983 1.46449 8.53553C0.526807 7.59785 2.28882e-05 6.32608 2.28882e-05 5C2.28882e-05 3.67392 0.526807 2.40215 1.46449 1.46447C2.40217 0.526784 3.67394 0 5.00002 0ZM5.00002 1C3.93916 1 2.92174 1.42143 2.1716 2.17157C1.42145 2.92172 1.00002 3.93913 1.00002 5C1.00002 6.06087 1.42145 7.07828 2.1716 7.82843C2.92174 8.57857 3.93916 9 5.00002 9C6.06089 9 7.0783 8.57857 7.82845 7.82843C8.5786 7.07828 9.00002 6.06087 9.00002 5C9.00002 3.93913 8.5786 2.92172 7.82845 2.17157C7.0783 1.42143 6.06089 1 5.00002 1Z" fill="black" fill-opacity="0.7"/>
</svg>
